<svg width="12" height="12" viewBox="0 0 12 12" fill="none" xmlns="http://www.w3.org/2000/svg">
<path d="M11.7649 0.132134C11.6466 0.0295012 11.4895 -0.0166706 11.3345 0.00540748L3.76946 1.08611C3.50323 1.12415 3.30552 1.35215 3.30552 1.62107V3.7825V7.95643C2.98545 7.76996 2.6139 7.66259 2.21752 7.66259C1.02172 7.66259 0.0488281 8.63548 0.0488281 9.83129C0.0488281 11.0271 1.0217 12 2.2175 12C3.4133 12 4.3862 11.0271 4.3862 9.83129V4.25115L10.8705 3.32483V6.8757C10.5504 6.68924 10.1789 6.58187 9.78249 6.58187C8.58669 6.58187 7.6138 7.55476 7.6138 8.75056C7.6138 9.94636 8.58669 10.9193 9.78249 10.9193C10.9783 10.9193 11.9512 9.94636 11.9512 8.75056V2.70177V0.540344C11.9512 0.383688 11.8832 0.234767 11.7649 0.132134Z" fill="#58708C"/>
</svg>
