<svg width="15" height="12" viewBox="0 0 15 12" fill="none" xmlns="http://www.w3.org/2000/svg">
<path fillRule="evenodd" clipRule="evenodd" d="M9.58403 7.7227C9.7372 7.49294 10.0476 7.43085 10.2774 7.58403L13.2774 9.58403C13.5072 9.7372 13.5693 10.0476 13.4161 10.2774C13.2629 10.5072 12.9525 10.5693 12.7227 10.4161L9.7227 8.41608C9.49294 8.2629 9.43085 7.95247 9.58403 7.7227Z" fill="#00C242"/>
<path fillRule="evenodd" clipRule="evenodd" d="M9.58403 7.7227C9.7372 7.49294 10.0476 7.43085 10.2774 7.58403L13.2774 9.58403C13.5072 9.7372 13.5693 10.0476 13.4161 10.2774C13.2629 10.5072 12.9525 10.5693 12.7227 10.4161L9.7227 8.41608C9.49294 8.2629 9.43085 7.95247 9.58403 7.7227Z" fill="#00C242"/>
<path d="M7.56628 0.0638723C7.39625 -0.0283361 7.18926 -0.0202168 7.02696 0.0850433L2.28175 3.16319H0.527855C0.23632 3.16319 0 3.39921 0 3.69034V8.30962C0 8.60079 0.23632 8.83682 0.527855 8.83682H2.28175L7.02696 11.9149C7.11414 11.9715 7.2142 12 7.3145 12C7.40094 12 7.48763 11.9788 7.56633 11.9361C7.73642 11.8438 7.84236 11.6661 7.84236 11.4728V0.527255C7.84231 0.333971 7.73637 0.156081 7.56628 0.0638723Z" fill="#00C242"/>
<path fillRule="evenodd" clipRule="evenodd" d="M13.4161 1.7227C13.5693 1.95247 13.5072 2.2629 13.2774 2.41608L10.2774 4.41608C10.0476 4.56925 9.7372 4.50717 9.58403 4.2774C9.43085 4.04764 9.49294 3.7372 9.7227 3.58403L12.7227 1.58403C12.9525 1.43085 13.2629 1.49294 13.4161 1.7227Z" fill="#00C242"/>
<path fillRule="evenodd" clipRule="evenodd" d="M9.5 6C9.5 5.72386 9.72386 5.5 10 5.5H14C14.2761 5.5 14.5 5.72386 14.5 6C14.5 6.27614 14.2761 6.5 14 6.5H10C9.72386 6.5 9.5 6.27614 9.5 6Z" fill="#00C242"/>
</svg>
