<svg width="15" height="12" viewBox="0 0 15 12" fill="none" xmlns="http://www.w3.org/2000/svg">
<path d="M7.56639 0.0638732C7.39636 -0.0283365 7.18936 -0.020217 7.02706 0.0850445L2.28178 3.16323H0.527862C0.236324 3.16323 0 3.39926 0 3.69039V8.30974C0 8.60092 0.236324 8.83695 0.527862 8.83695H2.28178L7.02706 11.9151C7.11424 11.9716 7.2143 12.0002 7.31461 12.0002C7.40105 12.0002 7.48773 11.9789 7.56644 11.9363C7.73653 11.844 7.84247 11.6663 7.84247 11.4729V0.527262C7.84242 0.333976 7.73648 0.156083 7.56639 0.0638732Z" fill="#58708C"/>
<path fillRule="evenodd" clipRule="evenodd" d="M14.3536 3.64645C14.5488 3.84171 14.5488 4.15829 14.3536 4.35355L10.3536 8.35355C10.1583 8.54882 9.84171 8.54882 9.64645 8.35355C9.45118 8.15829 9.45118 7.84171 9.64645 7.64645L13.6464 3.64645C13.8417 3.45118 14.1583 3.45118 14.3536 3.64645Z" fill="#58708C"/>
<path fillRule="evenodd" clipRule="evenodd" d="M14.354 8.35355C14.1588 8.54882 13.8422 8.54882 13.6469 8.35355L9.64693 4.35355C9.45167 4.15829 9.45167 3.84171 9.64693 3.64645C9.8422 3.45118 10.1588 3.45118 10.354 3.64645L14.354 7.64645C14.5493 7.84171 14.5493 8.15829 14.354 8.35355Z" fill="#58708C"/>
</svg>
