<svg width="128" height="40" viewBox="0 0 128 40" fill="none" xmlns="http://www.w3.org/2000/svg">
<rect x="3" y="3" width="122" height="34" rx="17" fill="#FFFFD5" stroke="#FFDE00" stroke-width="6"/>
<path d="M37.0767 13.2199C37.4183 12.3986 38.5817 12.3986 38.9233 13.2199L40.4105 16.7955C40.5545 17.1417 40.8801 17.3783 41.2539 17.4082L45.114 17.7177C46.0006 17.7888 46.3601 18.8953 45.6846 19.474L42.7436 21.9932C42.4588 22.2372 42.3345 22.6199 42.4215 22.9847L43.32 26.7515C43.5264 27.6167 42.5851 28.3006 41.826 27.8369L38.5213 25.8184C38.2012 25.6229 37.7988 25.6229 37.4787 25.8184L34.174 27.8369C33.4149 28.3006 32.4736 27.6167 32.68 26.7515L33.5785 22.9847C33.6655 22.6199 33.5412 22.2372 33.2564 21.9932L30.3154 19.474C29.6399 18.8953 29.9994 17.7888 30.886 17.7177L34.7461 17.4082C35.1199 17.3783 35.4455 17.1417 35.5895 16.7955L37.0767 13.2199Z" fill="#ED3453"/>
<path d="M57.852 26.112C56.872 26.112 55.9853 25.8973 55.192 25.468C54.408 25.0293 53.792 24.432 53.344 23.676C52.896 22.9107 52.672 22.052 52.672 21.1C52.672 20.148 52.896 19.294 53.344 18.538C53.792 17.7727 54.4127 17.1753 55.206 16.746C55.9993 16.3073 56.886 16.088 57.866 16.088C58.6313 16.088 59.3313 16.2187 59.966 16.48C60.6007 16.732 61.142 17.11 61.59 17.614L60.68 18.496C59.9427 17.7213 59.0233 17.334 57.922 17.334C57.194 17.334 56.536 17.4973 55.948 17.824C55.36 18.1507 54.898 18.6033 54.562 19.182C54.2353 19.7513 54.072 20.3907 54.072 21.1C54.072 21.8093 54.2353 22.4533 54.562 23.032C54.898 23.6013 55.36 24.0493 55.948 24.376C56.536 24.7027 57.194 24.866 57.922 24.866C59.014 24.866 59.9333 24.474 60.68 23.69L61.59 24.572C61.142 25.076 60.596 25.4587 59.952 25.72C59.3173 25.9813 58.6173 26.112 57.852 26.112ZM70.1392 26L68.0252 22.99C67.7639 23.0087 67.5585 23.018 67.4092 23.018H64.9872V26H63.5872V16.2H67.4092C68.6785 16.2 69.6772 16.5033 70.4052 17.11C71.1332 17.7167 71.4972 18.552 71.4972 19.616C71.4972 20.372 71.3105 21.016 70.9372 21.548C70.5639 22.08 70.0319 22.4673 69.3412 22.71L71.6652 26H70.1392ZM67.3672 21.828C68.2539 21.828 68.9305 21.6367 69.3972 21.254C69.8639 20.8713 70.0972 20.3253 70.0972 19.616C70.0972 18.9067 69.8639 18.3653 69.3972 17.992C68.9305 17.6093 68.2539 17.418 67.3672 17.418H64.9872V21.828H67.3672ZM80.0031 23.55H74.7951L73.7171 26H72.2751L76.7131 16.2H78.0991L82.5511 26H81.0811L80.0031 23.55ZM79.5131 22.43L77.3991 17.628L75.2851 22.43H79.5131ZM91.335 24.782V26H83.145V25.048L89.305 17.418H83.243V16.2H91.153V17.152L85.021 24.782H91.335ZM96.9661 22.612V26H95.5801V22.584L91.6881 16.2H93.1861L96.3221 21.366L99.4721 16.2H100.858L96.9661 22.612Z" fill="#0F2743"/>
</svg>
