<svg width="128" height="40" viewBox="0 0 128 40" fill="none" xmlns="http://www.w3.org/2000/svg">
<rect x="3" y="3" width="122" height="34" rx="17" fill="#FFFFD5" stroke="#FFDE00" stroke-width="6"/>
<path d="M37.0767 13.2199C37.4183 12.3986 38.5817 12.3986 38.9233 13.2199L40.4105 16.7955C40.5545 17.1417 40.8801 17.3783 41.2539 17.4082L45.114 17.7177C46.0006 17.7888 46.3601 18.8953 45.6846 19.474L42.7436 21.9932C42.4588 22.2372 42.3345 22.6199 42.4215 22.9847L43.32 26.7515C43.5264 27.6167 42.5851 28.3006 41.826 27.8369L38.5213 25.8184C38.2012 25.6229 37.7988 25.6229 37.4787 25.8184L34.174 27.8369C33.4149 28.3006 32.4736 27.6167 32.68 26.7515L33.5785 22.9847C33.6655 22.6199 33.5412 22.2372 33.2564 21.9932L30.3154 19.474C29.6399 18.8953 29.9994 17.7888 30.886 17.7177L34.7461 17.4082C35.1199 17.3783 35.4455 17.1417 35.5895 16.7955L37.0767 13.2199Z" fill="#00C242"/>
<path d="M60.582 24.782V26H53.47V16.2H60.386V17.418H54.87V20.428H59.784V21.618H54.87V24.782H60.582ZM69.0929 23.55H63.8849L62.8069 26H61.3649L65.8029 16.2H67.1889L71.6409 26H70.1709L69.0929 23.55ZM68.6029 22.43L66.4889 17.628L64.3749 22.43H68.6029ZM75.9588 26.112C75.2215 26.112 74.5075 26 73.8168 25.776C73.1355 25.5427 72.5988 25.244 72.2068 24.88L72.7248 23.788C73.0981 24.124 73.5741 24.3993 74.1528 24.614C74.7408 24.8193 75.3428 24.922 75.9588 24.922C76.7708 24.922 77.3775 24.7867 77.7788 24.516C78.1801 24.236 78.3808 23.8673 78.3808 23.41C78.3808 23.074 78.2688 22.8033 78.0448 22.598C77.8301 22.3833 77.5595 22.22 77.2328 22.108C76.9155 21.996 76.4628 21.87 75.8748 21.73C75.1375 21.5527 74.5401 21.3753 74.0828 21.198C73.6348 21.0207 73.2475 20.75 72.9208 20.386C72.6035 20.0127 72.4448 19.5133 72.4448 18.888C72.4448 18.3653 72.5801 17.894 72.8508 17.474C73.1308 17.054 73.5508 16.718 74.1108 16.466C74.6708 16.214 75.3661 16.088 76.1968 16.088C76.7755 16.088 77.3448 16.1627 77.9048 16.312C78.4648 16.4613 78.9455 16.676 79.3468 16.956L78.8848 18.076C78.4741 17.8147 78.0355 17.6187 77.5688 17.488C77.1021 17.348 76.6448 17.278 76.1968 17.278C75.4035 17.278 74.8061 17.4227 74.4048 17.712C74.0128 18.0013 73.8168 18.3747 73.8168 18.832C73.8168 19.168 73.9288 19.4433 74.1528 19.658C74.3768 19.8633 74.6521 20.0267 74.9788 20.148C75.3148 20.26 75.7675 20.3813 76.3368 20.512C77.0741 20.6893 77.6668 20.8667 78.1148 21.044C78.5628 21.2213 78.9455 21.492 79.2628 21.856C79.5895 22.22 79.7528 22.71 79.7528 23.326C79.7528 23.8393 79.6128 24.3107 79.3328 24.74C79.0528 25.16 78.6281 25.496 78.0588 25.748C77.4895 25.9907 76.7895 26.112 75.9588 26.112ZM85.345 22.612V26H83.959V22.584L80.067 16.2H81.565L84.701 21.366L87.851 16.2H89.237L85.345 22.612Z" fill="#0F2743"/>
</svg>
