<svg width="128" height="40" viewBox="0 0 128 40" fill="none" xmlns="http://www.w3.org/2000/svg">
<rect x="3" y="3" width="122" height="34" rx="17" fill="#FFFFD5" stroke="#FFDE00" stroke-width="6"/>
<path d="M37.0767 13.2199C37.4183 12.3986 38.5817 12.3986 38.9233 13.2199L40.4105 16.7955C40.5545 17.1417 40.8801 17.3783 41.2539 17.4082L45.114 17.7177C46.0006 17.7888 46.3601 18.8953 45.6846 19.474L42.7436 21.9932C42.4588 22.2372 42.3345 22.6199 42.4215 22.9847L43.32 26.7515C43.5264 27.6167 42.5851 28.3006 41.826 27.8369L38.5213 25.8184C38.2012 25.6229 37.7988 25.6229 37.4787 25.8184L34.174 27.8369C33.4149 28.3006 32.4736 27.6167 32.68 26.7515L33.5785 22.9847C33.6655 22.6199 33.5412 22.2372 33.2564 21.9932L30.3154 19.474C29.6399 18.8953 29.9994 17.7888 30.886 17.7177L34.7461 17.4082C35.1199 17.3783 35.4455 17.1417 35.5895 16.7955L37.0767 13.2199Z" fill="#FFB800"/>
<path d="M61.898 16.2V26H60.498V21.632H54.87V26H53.47V16.2H54.87V20.414H60.498V16.2H61.898ZM71.0753 23.55H65.8673L64.7893 26H63.3473L67.7853 16.2H69.1713L73.6233 26H72.1533L71.0753 23.55ZM70.5853 22.43L68.4713 17.628L66.3573 22.43H70.5853ZM81.6372 26L79.5232 22.99C79.2619 23.0087 79.0566 23.018 78.9072 23.018H76.4852V26H75.0852V16.2H78.9072C80.1766 16.2 81.1752 16.5033 81.9032 17.11C82.6312 17.7167 82.9952 18.552 82.9952 19.616C82.9952 20.372 82.8086 21.016 82.4352 21.548C82.0619 22.08 81.5299 22.4673 80.8392 22.71L83.1632 26H81.6372ZM78.8652 21.828C79.7519 21.828 80.4286 21.6367 80.8952 21.254C81.3619 20.8713 81.5952 20.3253 81.5952 19.616C81.5952 18.9067 81.3619 18.3653 80.8952 17.992C80.4286 17.6093 79.7519 17.418 78.8652 17.418H76.4852V21.828H78.8652ZM85.2571 16.2H89.3871C90.4231 16.2 91.3424 16.4053 92.1451 16.816C92.9478 17.2267 93.5684 17.8053 94.0071 18.552C94.4551 19.2893 94.6791 20.1387 94.6791 21.1C94.6791 22.0613 94.4551 22.9153 94.0071 23.662C93.5684 24.3993 92.9478 24.9733 92.1451 25.384C91.3424 25.7947 90.4231 26 89.3871 26H85.2571V16.2ZM89.3031 24.782C90.0964 24.782 90.7918 24.628 91.3891 24.32C91.9958 24.012 92.4624 23.5827 92.7891 23.032C93.1158 22.472 93.2791 21.828 93.2791 21.1C93.2791 20.372 93.1158 19.7327 92.7891 19.182C92.4624 18.622 91.9958 18.188 91.3891 17.88C90.7918 17.572 90.0964 17.418 89.3031 17.418H86.6571V24.782H89.3031Z" fill="#0F2743"/>
</svg>
