<svg width="24" height="24" viewBox="0 0 24 24" fill="none" xmlns="http://www.w3.org/2000/svg">
<g clip-path="url(#clip0)">
<path d="M21.5994 12.2704C21.5994 11.7456 21.3931 11.2418 21.0251 10.8677L13.4251 3.14313C12.6415 2.34669 11.3573 2.34669 10.5738 3.14312L2.97375 10.8677C2.60569 11.2418 2.39941 11.7456 2.39941 12.2704V20.4C2.39941 21.5045 3.29484 22.4 4.39941 22.4H19.5994C20.704 22.4 21.5994 21.5045 21.5994 20.4V12.2704Z" fill="url(#paint0_linear)"/>
<path d="M12.1629 4.54456L21.1222 13.504C21.5502 13.9319 22.244 13.9319 22.6719 13.504L23.6781 12.4978C24.1061 12.0698 24.1061 11.376 23.6781 10.9481L13.2469 0.516847C12.5577 -0.172282 11.4404 -0.172282 10.7513 0.516847L0.319988 10.9481C-0.107965 11.376 -0.107965 12.0699 0.319988 12.4978L1.32615 13.504C1.75411 13.9319 2.44794 13.9319 2.87585 13.504L11.8352 4.54456C11.9257 4.45412 12.0724 4.45412 12.1629 4.54456V4.54456Z" fill="url(#paint1_linear)"/>
<path d="M10.7523 2.86962L0.722656 12.8993L1.32717 13.5038C1.75513 13.9317 2.44896 13.9317 2.87687 13.5038L11.8363 4.54445C11.9268 4.454 12.0734 4.454 12.1639 4.54445L21.1233 13.5038C21.5513 13.9318 22.2451 13.9318 22.673 13.5038L23.2775 12.8993L13.2479 2.86967C12.5588 2.1805 11.4415 2.1805 10.7523 2.86962V2.86962Z" fill="url(#paint2_linear)"/>
<path d="M1.32615 13.504C1.75411 13.9319 2.44794 13.9319 2.87585 13.504L8.94455 7.4353H3.83284L0.319988 10.9481C-0.107965 11.3761 -0.107965 12.0699 0.319988 12.4978L1.32615 13.504Z" fill="url(#paint3_linear)"/>
<path d="M23.6783 12.4978C24.1062 12.0699 24.1062 11.3761 23.6783 10.9481L20.1654 7.4353H15.0537L21.1224 13.504C21.5503 13.9319 22.2442 13.9319 22.6721 13.504L23.6783 12.4978Z" fill="url(#paint4_linear)"/>
<path d="M13.8 12C14.22 12 14.4301 12 14.5905 12.0981C14.7316 12.1844 14.8463 12.3221 14.9183 12.4914C15 12.6839 15 12.936 15 13.44L15 19.56C15 20.064 15 20.3161 14.9183 20.5086C14.8463 20.6779 14.7316 20.8156 14.5905 20.9019C14.4301 21 14.22 21 13.8 21L10.2 21C9.77996 21 9.56994 21 9.40951 20.9019C9.26839 20.8156 9.15365 20.6779 9.08174 20.5086C9 20.3161 9 20.064 9 19.56L9 13.44C9 12.936 9 12.6839 9.08175 12.4914C9.15365 12.3221 9.26839 12.1844 9.40951 12.0981C9.56994 12 9.77996 12 10.2 12L13.8 12Z" fill="url(#paint5_linear)"/>
</g>
<defs>
<linearGradient id="paint0_linear" x1="11.9995" y1="3.99976" x2="11.9995" y2="22.4998" gradientUnits="userSpaceOnUse">
<stop stop-color="#218DF9"/>
<stop offset="1" stop-color="#00F2FF"/>
</linearGradient>
<linearGradient id="paint1_linear" x1="5.4102" y1="5.13412" x2="16.8775" y2="16.6014" gradientUnits="userSpaceOnUse">
<stop stop-color="#FF6B77"/>
<stop offset="1" stop-color="#D2024E"/>
</linearGradient>
<linearGradient id="paint2_linear" x1="12.0001" y1="12.8939" x2="12.0001" y2="2.34901" gradientUnits="userSpaceOnUse">
<stop stop-color="#FD4755"/>
<stop offset="1" stop-color="#D2024E"/>
</linearGradient>
<linearGradient id="paint3_linear" x1="4.4718" y1="9.50589" x2="4.4718" y2="13.9653" gradientUnits="userSpaceOnUse">
<stop stop-color="#C00148" stop-opacity="0"/>
<stop offset="1" stop-color="#6D3326"/>
</linearGradient>
<linearGradient id="paint4_linear" x1="19.5265" y1="9.50589" x2="19.5265" y2="13.9653" gradientUnits="userSpaceOnUse">
<stop stop-color="#C00148" stop-opacity="0"/>
<stop offset="1" stop-color="#6D3326"/>
</linearGradient>
<linearGradient id="paint5_linear" x1="13.9457" y1="12.6086" x2="8.7953" y2="21.1926" gradientUnits="userSpaceOnUse">
<stop stop-color="#2B4FFF"/>
<stop offset="1" stop-color="#0391F8"/>
</linearGradient>
<clipPath id="clip0">
<rect width="24" height="24" fill="white"/>
</clipPath>
</defs>
</svg>
