<svg width="40" height="24" viewBox="0 0 40 24" fill="none" xmlns="http://www.w3.org/2000/svg">
<path d="M40 12H0L4 16L0 20H40L36 16L40 12Z" fill="url(#paint0_radial_6068_31834)"/>
<ellipse cx="20.0397" cy="12" rx="11.84" ry="12" fill="url(#paint1_linear_6068_31834)"/>
<ellipse cx="20.0397" cy="12" rx="8.88" ry="9" fill="url(#paint2_linear_6068_31834)"/>
<ellipse cx="20.0398" cy="12.0002" rx="7.89333" ry="8" fill="url(#paint3_linear_6068_31834)" fill-opacity="0.9"/>
<path d="M19.392 18.192C18.6347 18.192 17.936 18.0533 17.296 17.776C16.6667 17.488 16.1493 17.0827 15.744 16.56L17.184 14.832C17.792 15.6533 18.4853 16.064 19.264 16.064C20.32 16.064 20.848 15.4453 20.848 14.208V8.88H16.912V6.8H23.424V14.064C23.424 15.44 23.0827 16.4747 22.4 17.168C21.7173 17.8507 20.7147 18.192 19.392 18.192Z" fill="#102A51"/>
<defs>
<radialGradient id="paint0_radial_6068_31834" cx="0" cy="0" r="1" gradientUnits="userSpaceOnUse" gradientTransform="translate(20 15.5) rotate(90) scale(7.375 36.875)">
<stop stop-color="#FFBC08"/>
<stop offset="1" stop-color="#FFBC08"/>
</radialGradient>
<linearGradient id="paint1_linear_6068_31834" x1="20.0397" y1="0" x2="20.0397" y2="24" gradientUnits="userSpaceOnUse">
<stop stop-color="#FFF38B"/>
<stop offset="1" stop-color="#FD9902"/>
</linearGradient>
<linearGradient id="paint2_linear_6068_31834" x1="20.0397" y1="3" x2="20.0397" y2="21" gradientUnits="userSpaceOnUse">
<stop stop-color="#FFC700"/>
<stop offset="1" stop-color="#FFE24D"/>
</linearGradient>
<linearGradient id="paint3_linear_6068_31834" x1="20.0398" y1="4.00024" x2="20.0398" y2="20.0002" gradientUnits="userSpaceOnUse">
<stop offset="0.472783" stop-color="#FFAA00"/>
<stop offset="1" stop-color="#FFCE20"/>
</linearGradient>
</defs>
</svg>
