<svg width="24" height="24" viewBox="0 0 24 24" fill="none" xmlns="http://www.w3.org/2000/svg">
<g clip-path="url(#clip0)">
<path d="M17.6344 1.50928H6.36563C6.10313 1.50928 5.86406 1.6499 5.73281 1.8749L0.0984375 11.6343C-0.0328125 11.8593 -0.0328125 12.1405 0.0984375 12.3655L5.73281 22.1249C5.86406 22.3499 6.10781 22.4905 6.36563 22.4905H17.6344C17.8969 22.4905 18.1359 22.3499 18.2672 22.1249L23.9016 12.3655C24.0328 12.1405 24.0328 11.8593 23.9016 11.6343L18.2672 1.8749C18.1359 1.6499 17.8969 1.50928 17.6344 1.50928Z" fill="#FFD45D"/>
<path d="M23.9999 12H19.1952L15.5952 18.2344L17.9952 22.3922C18.103 22.3266 18.1968 22.2375 18.2624 22.125L23.8968 12.3656C23.9671 12.2531 23.9999 12.1266 23.9999 12Z" fill="#FF7B05"/>
<path d="M15.6 18.2344H8.4L6 22.3922C6.10781 22.4578 6.23438 22.4906 6.36563 22.4906H17.6344C17.7656 22.4906 17.8922 22.4578 18 22.3922L15.6 18.2344Z" fill="#FF9416"/>
<path d="M8.4 18.2344L4.8 12H0C0 12.1266 0.0328125 12.2531 0.0984375 12.3656L5.73281 22.125C5.79844 22.2375 5.89219 22.3313 6 22.3922L8.4 18.2344Z" fill="#FFC13F"/>
<path d="M8.4 5.76572L6 1.60791C5.89219 1.66885 5.79844 1.7626 5.73281 1.8751L0.0984375 11.6345C0.0328125 11.747 0 11.8735 0 12.0001H4.80469L8.4 5.76572Z" fill="#FFE85F"/>
<path d="M8.4 5.76553H15.5953L18 1.60771C17.8922 1.54678 17.7656 1.50928 17.6344 1.50928H6.36563C6.23438 1.50928 6.10781 1.54209 6 1.60771L8.4 5.76553Z" fill="#FFC13F"/>
<path d="M15.6001 5.76572L19.2001 12.0001H24.0001C24.0001 11.8735 23.9673 11.747 23.9017 11.6345L18.2673 1.8751C18.2017 1.7626 18.1079 1.66885 18.0001 1.60791L15.6001 5.76572Z" fill="#FF9416"/>
<path d="M15.5717 5.76562H8.37637L4.77637 12L8.37637 18.2344H15.5717L19.167 12L15.5717 5.76562Z" fill="url(#paint0_linear)"/>
<path d="M11.9248 10.8657C13.1027 10.8657 14.0576 9.91083 14.0576 8.73291C14.0576 7.55499 13.1027 6.6001 11.9248 6.6001C10.7469 6.6001 9.79199 7.55499 9.79199 8.73291C9.79199 9.91083 10.7469 10.8657 11.9248 10.8657Z" fill="#FFE85F"/>
<path d="M15.6094 14.2031C16.7873 14.2031 17.7422 13.2482 17.7422 12.0703C17.7422 10.8924 16.7873 9.9375 15.6094 9.9375C14.4315 9.9375 13.4766 10.8924 13.4766 12.0703C13.4766 13.2482 14.4315 14.2031 15.6094 14.2031Z" fill="#FFE85F"/>
<path d="M8.59229 14.2031C9.77021 14.2031 10.7251 13.2482 10.7251 12.0703C10.7251 10.8924 9.77021 9.9375 8.59229 9.9375C7.41437 9.9375 6.45947 10.8924 6.45947 12.0703C6.45947 13.2482 7.41437 14.2031 8.59229 14.2031Z" fill="#FFE85F"/>
<path d="M11.9248 17.4468C13.1027 17.4468 14.0576 16.4919 14.0576 15.314C14.0576 14.136 13.1027 13.1812 11.9248 13.1812C10.7469 13.1812 9.79199 14.136 9.79199 15.314C9.79199 16.4919 10.7469 17.4468 11.9248 17.4468Z" fill="#FFE85F"/>
</g>
<defs>
<linearGradient id="paint0_linear" x1="4.77669" y1="12" x2="19.1693" y2="12" gradientUnits="userSpaceOnUse">
<stop stop-color="#FFA408"/>
<stop offset="1" stop-color="#F03800"/>
</linearGradient>
<clipPath id="clip0">
<rect width="24" height="24" fill="white"/>
</clipPath>
</defs>
</svg>
