<svg width="24" height="24" viewBox="0 0 24 24" fill="none" xmlns="http://www.w3.org/2000/svg">
<circle cx="12" cy="12" r="12" fill="url(#paint0_linear_6117_23906)"/>
<path d="M19.9963 13.9295H19.4447V13.7334L16.9625 8.30354L14.4803 13.7334V13.9295H13.9287V13.6882C13.9287 13.658 13.9356 13.6278 13.9494 13.5977L16.7074 7.56448C16.7625 7.4408 16.9246 7.38047 17.0659 7.42873C17.1349 7.45287 17.19 7.50113 17.2211 7.56448L19.979 13.5977C19.9928 13.6248 19.9997 13.658 19.9997 13.6882V13.9295H19.9963Z" fill="#FFEFB0"/>
<path d="M10.0676 13.9295H9.51597V13.7334L7.03378 8.30354L4.5516 13.7334V13.9295H4V13.6882C4 13.658 4.00689 13.6278 4.02068 13.5977L6.77867 7.56448C6.83383 7.4408 6.99586 7.38047 7.13721 7.42873C7.20616 7.45287 7.26132 7.50113 7.29235 7.56448L10.0503 13.5977C10.0641 13.6248 10.071 13.658 10.071 13.6882V13.9295H10.0676Z" fill="#FFEFB0"/>
<path d="M11.1709 5.48242H12.8257V16.1008H11.1709V5.48242Z" fill="url(#paint1_linear_6117_23906)"/>
<path d="M18 6.09091L17.8687 6.23409C17.4719 6.66705 16.9344 6.90909 16.375 6.90909C15.8156 6.90909 15.2781 6.66705 14.8813 6.23409L14.4563 5.77045C14.0031 5.27614 13.3906 5 12.75 5H11.25C10.6094 5 9.99687 5.27614 9.54375 5.77045L9.11875 6.23409C8.72188 6.66705 8.18438 6.90909 7.625 6.90909C7.06562 6.90909 6.52812 6.66705 6.13125 6.23409L6 6.09091C6 5.79091 5.775 5.54545 5.5 5.54545C5.225 5.54545 5 5.79091 5 6.09091C5 6.43864 5.12812 6.77614 5.35312 7.02159L5.63125 7.325C6.02813 7.75795 6.56562 8 7.125 8H8.375C8.93438 8 9.47188 7.75795 9.86875 7.325L10.2937 6.86136C10.7469 6.36705 11.3594 6.09091 12 6.09091C12.6406 6.09091 13.2531 6.36705 13.7063 6.86136L14.1313 7.325C14.5281 7.75795 15.0656 8 15.625 8H16.875C17.4344 8 17.9719 7.75795 18.3687 7.325L18.6469 7.02159C18.8719 6.77614 19 6.43864 19 6.09091C19 5.79091 18.775 5.54545 18.5 5.54545C18.225 5.54545 18 5.79091 18 6.09091Z" fill="url(#paint2_linear_6117_23906)"/>
<path d="M15.2004 17.5495H14.7557L14.6351 16.907C14.5454 16.4424 14.0869 16.1016 13.5457 16.1016H10.4498C9.91201 16.1016 9.45005 16.4424 9.36041 16.907L9.23975 17.5495H8.79503C8.25722 17.5495 7.79526 17.8904 7.70562 18.355L7.58496 18.9975H16.4105L16.2899 18.355C16.2002 17.8904 15.7383 17.5495 15.2004 17.5495Z" fill="url(#paint3_linear_6117_23906)"/>
<path d="M13.9287 13.688H19.9963V14.1706C19.9963 14.7046 19.5033 15.136 18.8931 15.136H15.0319C14.4217 15.136 13.9287 14.7046 13.9287 14.1706V13.688Z" fill="url(#paint4_linear_6117_23906)"/>
<path d="M4 13.688H10.0676V14.1706C10.0676 14.7046 9.57458 15.136 8.96437 15.136H5.10319C4.49299 15.136 4 14.7046 4 14.1706V13.688Z" fill="url(#paint5_linear_6117_23906)"/>
<defs>
<linearGradient id="paint0_linear_6117_23906" x1="12" y1="0" x2="12" y2="24" gradientUnits="userSpaceOnUse">
<stop stop-color="#FEC703"/>
<stop offset="1" stop-color="#FE772B"/>
</linearGradient>
<linearGradient id="paint1_linear_6117_23906" x1="11.9983" y1="5.48242" x2="11.9983" y2="16.1008" gradientUnits="userSpaceOnUse">
<stop stop-color="#FFE26F"/>
<stop offset="1" stop-color="#FFBC08"/>
</linearGradient>
<linearGradient id="paint2_linear_6117_23906" x1="12" y1="5" x2="12" y2="8" gradientUnits="userSpaceOnUse">
<stop stop-color="#FFFFD5"/>
<stop offset="1" stop-color="#FFE85F"/>
</linearGradient>
<linearGradient id="paint3_linear_6117_23906" x1="11.9977" y1="16.1016" x2="11.9977" y2="18.9975" gradientUnits="userSpaceOnUse">
<stop stop-color="#FFFFD5"/>
<stop offset="1" stop-color="#FFD11C"/>
</linearGradient>
<linearGradient id="paint4_linear_6117_23906" x1="16.9625" y1="13.688" x2="16.9625" y2="15.136" gradientUnits="userSpaceOnUse">
<stop stop-color="#FFFFD5"/>
<stop offset="1" stop-color="#FFBC08"/>
</linearGradient>
<linearGradient id="paint5_linear_6117_23906" x1="7.03378" y1="13.688" x2="7.03378" y2="15.136" gradientUnits="userSpaceOnUse">
<stop stop-color="#FFFFD5"/>
<stop offset="1" stop-color="#FFBC08"/>
</linearGradient>
</defs>
</svg>
