<svg width="24" height="24" viewBox="0 0 24 24" fill="none" xmlns="http://www.w3.org/2000/svg">
<g clip-path="url(#clip0)">
<path d="M14 17.1665L17.1665 14L22.7079 19.5414C23.5823 20.4158 23.5823 21.8335 22.7079 22.7079V22.7079C21.8335 23.5823 20.4158 23.5823 19.5414 22.7079L14 17.1665Z" fill="url(#paint0_linear)"/>
<rect width="4.47811" height="2.23905" transform="matrix(0.707106 -0.707108 0.707106 0.707108 17.3584 20.5259)" fill="#17C8FF"/>
<path d="M19.8756 5.87547C22.7057 10.7774 21.0262 17.0454 16.1244 19.8755C11.2225 22.7056 4.95446 21.0261 2.12436 16.1242C-0.705748 11.2223 0.973762 4.95428 5.87565 2.12418C10.7775 -0.705924 17.0455 0.973585 19.8756 5.87547Z" fill="url(#paint1_linear)"/>
<path d="M20.0371 11.0002C20.0371 15.9708 16.0077 20.0002 11.0371 20.0002C6.06655 20.0002 2.03711 15.9708 2.03711 11.0002C2.03711 6.02968 6.06655 2.00024 11.0371 2.00024C16.0077 2.00024 20.0371 6.02968 20.0371 11.0002Z" fill="#15D9FF"/>
<path d="M16.5473 7.79735C18.3161 10.861 17.2664 14.7785 14.2027 16.5474C11.139 18.3162 7.22154 17.2665 5.45272 14.2028C3.68391 11.1391 4.7336 7.22161 7.79728 5.4528C10.861 3.68398 14.7785 4.73367 16.5473 7.79735Z" fill="url(#paint2_radial)"/>
</g>
<defs>
<linearGradient id="paint0_linear" x1="15.5832" y1="15.5833" x2="22.7079" y2="22.7079" gradientUnits="userSpaceOnUse">
<stop stop-color="#2D54FF"/>
<stop offset="1" stop-color="#00B3FF"/>
</linearGradient>
<linearGradient id="paint1_linear" x1="5.87565" y1="2.12418" x2="16.1244" y2="19.8755" gradientUnits="userSpaceOnUse">
<stop stop-color="#0FE2FF"/>
<stop offset="1" stop-color="#346DFF"/>
</linearGradient>
<radialGradient id="paint2_radial" cx="0" cy="0" r="1" gradientUnits="userSpaceOnUse" gradientTransform="translate(7.15667 7.15675) rotate(45) scale(16.3056)">
<stop stop-color="white"/>
<stop offset="1" stop-color="white" stop-opacity="0.7"/>
</radialGradient>
<clipPath id="clip0">
<rect width="24" height="24" fill="white"/>
</clipPath>
</defs>
</svg>
