<svg width="24" height="24" viewBox="0 0 24 24" fill="none" xmlns="http://www.w3.org/2000/svg">
<g clip-path="url(#clip0)">
<path d="M6.36563 22.4905H17.6344C17.8969 22.4905 18.1359 22.3499 18.2672 22.1249L23.9016 12.3655C24.0328 12.1405 24.0328 11.8593 23.9016 11.6343L18.2672 1.8749C18.1359 1.6499 17.8922 1.50928 17.6344 1.50928H6.36563C6.10313 1.50928 5.86406 1.6499 5.73281 1.8749L0.0984375 11.6343C-0.0328125 11.8593 -0.0328125 12.1405 0.0984375 12.3655L5.73281 22.1249C5.86406 22.3499 6.10313 22.4905 6.36563 22.4905Z" fill="#5D68FF"/>
<path d="M0 12.0001H4.80469L8.40469 5.76572L6 1.60791C5.89219 1.67354 5.79844 1.7626 5.73281 1.8751L0.0984375 11.6345C0.0328125 11.747 0 11.8735 0 12.0001Z" fill="#00F2FF"/>
<path d="M8.4 5.76553H15.5953L18 1.60771C17.8922 1.54209 17.7656 1.50928 17.6344 1.50928H6.36563C6.23438 1.50928 6.10781 1.54209 6 1.60771L8.4 5.76553Z" fill="#17C8FF"/>
<path d="M15.6001 5.76572L19.2001 12.0001H24.0001C24.0001 11.8735 23.9673 11.747 23.9017 11.6345L18.2673 1.8751C18.2017 1.7626 18.1079 1.66885 18.0001 1.60791L15.6001 5.76572Z" fill="#218DF9"/>
<path d="M15.6001 18.2341L18.0001 22.3966C18.1079 22.331 18.2017 22.2419 18.2673 22.1294L23.9017 12.37C23.9673 12.2575 24.0001 12.131 24.0001 12.0044H19.1954L15.6001 18.2341Z" fill="#2B4FFF"/>
<path d="M15.6 18.2344H8.4L6 22.3922C6.10781 22.4578 6.23438 22.4906 6.36563 22.4906H17.6344C17.7656 22.4906 17.8922 22.4578 18 22.3922L15.6 18.2344Z" fill="#218DF9"/>
<path d="M8.4 18.2344L4.8 12H0C0 12.1266 0.0328125 12.2531 0.0984375 12.3656L5.73281 22.125C5.79844 22.2375 5.89219 22.3313 6 22.3922L8.4 18.2344Z" fill="#17C8FF"/>
<path d="M8.4 18.2344H15.6L19.1953 12L15.6 5.76562H8.4L4.80469 12L8.4 18.2344Z" fill="url(#paint0_linear)"/>
<path d="M12 14.1328C13.1779 14.1328 14.1328 13.1779 14.1328 12C14.1328 10.8221 13.1779 9.86719 12 9.86719C10.8221 9.86719 9.86719 10.8221 9.86719 12C9.86719 13.1779 10.8221 14.1328 12 14.1328Z" fill="#00F2FF"/>
<g clip-path="url(#clip1)">
<path d="M6.36563 22.4905H17.6344C17.8969 22.4905 18.1359 22.3499 18.2672 22.1249L23.9016 12.3655C24.0328 12.1405 24.0328 11.8593 23.9016 11.6343L18.2672 1.8749C18.1359 1.6499 17.8922 1.50928 17.6344 1.50928H6.36563C6.10313 1.50928 5.86406 1.6499 5.73281 1.8749L0.0984375 11.6343C-0.0328125 11.8593 -0.0328125 12.1405 0.0984375 12.3655L5.73281 22.1249C5.86406 22.3499 6.10313 22.4905 6.36563 22.4905Z" fill="#5D68FF"/>
<path d="M0 12.0001H4.80469L8.40469 5.76572L6 1.60791C5.89219 1.67354 5.79844 1.7626 5.73281 1.8751L0.0984375 11.6345C0.0328125 11.747 0 11.8735 0 12.0001Z" fill="#00F2FF"/>
<path d="M8.4 5.76553H15.5953L18 1.60771C17.8922 1.54209 17.7656 1.50928 17.6344 1.50928H6.36563C6.23438 1.50928 6.10781 1.54209 6 1.60771L8.4 5.76553Z" fill="#17C8FF"/>
<path d="M15.6001 5.76572L19.2001 12.0001H24.0001C24.0001 11.8735 23.9673 11.747 23.9017 11.6345L18.2673 1.8751C18.2017 1.7626 18.1079 1.66885 18.0001 1.60791L15.6001 5.76572Z" fill="#218DF9"/>
<path d="M15.6001 18.2341L18.0001 22.3966C18.1079 22.331 18.2017 22.2419 18.2673 22.1294L23.9017 12.37C23.9673 12.2575 24.0001 12.131 24.0001 12.0044H19.1954L15.6001 18.2341Z" fill="#2B4FFF"/>
<path d="M15.6 18.2344H8.4L6 22.3922C6.10781 22.4578 6.23438 22.4906 6.36563 22.4906H17.6344C17.7656 22.4906 17.8922 22.4578 18 22.3922L15.6 18.2344Z" fill="#218DF9"/>
<path d="M8.4 18.2344L4.8 12H0C0 12.1266 0.0328125 12.2531 0.0984375 12.3656L5.73281 22.125C5.79844 22.2375 5.89219 22.3313 6 22.3922L8.4 18.2344Z" fill="#17C8FF"/>
<path d="M8.4 18.2344H15.6L19.1953 12L15.6 5.76562H8.4L4.80469 12L8.4 18.2344Z" fill="url(#paint1_linear)"/>
<path d="M12 14.1328C13.1779 14.1328 14.1328 13.1779 14.1328 12C14.1328 10.8221 13.1779 9.86719 12 9.86719C10.8221 9.86719 9.86719 10.8221 9.86719 12C9.86719 13.1779 10.8221 14.1328 12 14.1328Z" fill="#00F2FF"/>
</g>
</g>
<defs>
<linearGradient id="paint0_linear" x1="4.8037" y1="12" x2="19.1963" y2="12" gradientUnits="userSpaceOnUse">
<stop stop-color="#00B3FF"/>
<stop offset="1" stop-color="#4B0AFF"/>
</linearGradient>
<linearGradient id="paint1_linear" x1="4.8037" y1="12" x2="19.1963" y2="12" gradientUnits="userSpaceOnUse">
<stop stop-color="#00B3FF"/>
<stop offset="1" stop-color="#4B0AFF"/>
</linearGradient>
<clipPath id="clip0">
<rect width="24" height="24" fill="white"/>
</clipPath>
<clipPath id="clip1">
<rect width="24" height="24" fill="white"/>
</clipPath>
</defs>
</svg>
