<svg width="26" height="26" viewBox="0 0 26 26" fill="none" xmlns="http://www.w3.org/2000/svg">
<circle cx="12" cy="12" r="12" fill="url(#paint0_linear)"/>
<circle cx="12.0008" cy="12.0008" r="9.56773" fill="url(#paint1_linear)"/>
<g opacity="0.32" filter="url(#filter0_f)">
<path fill-rule="evenodd" clip-rule="evenodd" d="M11.3122 20.8795C16.5963 20.8795 20.8799 16.5958 20.8799 11.3117C20.8799 8.84466 19.9462 6.59569 18.4128 4.89893C20.3503 6.64981 21.5678 9.18251 21.5678 11.9996C21.5678 17.2837 17.2842 21.5673 12.0001 21.5673C9.183 21.5673 6.6503 20.3498 4.89941 18.4124C6.59617 19.9457 8.84515 20.8795 11.3122 20.8795Z" fill="#FFE26F"/>
</g>
<g filter="url(#filter1_f)">
<rect x="11.0254" y="7.7207" width="3.2335" height="9.32351" rx="1.61675" fill="#F99335"/>
</g>
<path d="M13.4844 14.6498C13.4844 14.2327 13.3721 13.8892 13.1476 13.6193C12.9231 13.3445 12.5489 13.0992 12.0249 12.8833C11.501 12.6625 11.0936 12.4588 10.8025 12.2723C9.83368 11.659 9.34927 10.7511 9.34927 9.5489C9.34927 8.73431 9.55925 8.06449 9.97921 7.53943C10.3992 7.01437 10.9688 6.70277 11.6881 6.60463V5.49896C11.6881 5.22339 11.9115 5 12.1871 5C12.4627 5 12.6861 5.22339 12.6861 5.49896V6.61935C13.4096 6.74203 13.9688 7.10515 14.3638 7.70873C14.6501 8.14261 14.8327 8.67187 14.9115 9.2965C14.9636 9.71002 14.6185 10.0494 14.2017 10.0494C13.7849 10.0494 13.4624 9.70712 13.3759 9.2994C13.3173 9.02311 13.2225 8.78732 13.0915 8.59201C12.8586 8.23379 12.5405 8.05468 12.1372 8.05468C11.738 8.05468 11.4262 8.18226 11.2017 8.43743C10.9771 8.6926 10.8649 9.05818 10.8649 9.53417C10.8649 9.96109 10.9751 10.3046 11.1954 10.5647C11.42 10.8198 11.7983 11.0627 12.3306 11.2934C12.8628 11.524 13.2807 11.7375 13.5842 11.9338C13.8877 12.13 14.1435 12.3558 14.3514 12.6109C14.5593 12.8612 14.7193 13.1507 14.8316 13.4795C14.9439 13.8083 15 14.1935 15 14.6351C15 15.4644 14.7838 16.1367 14.3514 16.6519C13.9231 17.1672 13.3243 17.4714 12.5551 17.5647V18.5042C12.5551 18.778 12.3331 19 12.0593 19C11.7854 19 11.5634 18.778 11.5634 18.5042V17.572C10.7401 17.4641 10.106 17.1157 9.66112 16.5268C9.34116 16.0993 9.13733 15.571 9.04965 14.9418C8.99188 14.5273 9.33928 14.1861 9.7578 14.1861C10.1763 14.1861 10.4979 14.5311 10.5957 14.938C10.6605 15.2079 10.7648 15.4357 10.9085 15.6215C11.1746 15.96 11.5489 16.1293 12.0312 16.1293C12.5052 16.1293 12.8649 15.9944 13.1102 15.7245C13.3597 15.4546 13.4844 15.0964 13.4844 14.6498Z" fill="#FFF1C1"/>
<defs>
<filter id="filter0_f" x="0.899414" y="0.898926" width="24.6684" height="24.6684" filterUnits="userSpaceOnUse" color-interpolation-filters="sRGB">
<feFlood flood-opacity="0" result="BackgroundImageFix"/>
<feBlend mode="normal" in="SourceGraphic" in2="BackgroundImageFix" result="shape"/>
<feGaussianBlur stdDeviation="2" result="effect1_foregroundBlur"/>
</filter>
<filter id="filter1_f" x="7.02539" y="3.7207" width="11.2335" height="17.3235" filterUnits="userSpaceOnUse" color-interpolation-filters="sRGB">
<feFlood flood-opacity="0" result="BackgroundImageFix"/>
<feBlend mode="normal" in="SourceGraphic" in2="BackgroundImageFix" result="shape"/>
<feGaussianBlur stdDeviation="2" result="effect1_foregroundBlur"/>
</filter>
<linearGradient id="paint0_linear" x1="4.45482" y1="2.65361" x2="19.267" y2="20.7515" gradientUnits="userSpaceOnUse">
<stop stop-color="#FFC700"/>
<stop offset="1" stop-color="#FFA800"/>
</linearGradient>
<linearGradient id="paint1_linear" x1="7.47196" y1="6.42479" x2="17.3827" y2="19.2441" gradientUnits="userSpaceOnUse">
<stop stop-color="#FFA800"/>
<stop offset="0.938927" stop-color="#FFC838"/>
</linearGradient>
</defs>
</svg>
